# xmcd CD database file
#
# Track frame offsets:
#	150
#	18500
#	31048
#	46128
#	70632
#	104312
#	117925
#	136242
#	149368
#	170291
#	184080
#	191888
#
# Disc length: 3045 seconds
#
# Revision: 0
# Processed by: cddbd v1.5.2PL0 Copyright (c) Steve Scherf et al.
# Submitted via: CDex 1.70beta2
#
DISCID=9e0be30c
DTITLE=Mariachi Soul - Los Troubadores
DYEAR=2000
DGENRE=Jazz
TTITLE0=Rita
TTITLE1=One Shot
TTITLE2=Make More Money
TTITLE3=Constantly Moving
TTITLE4=Something Right - Adelante Armor Mio
TTITLE5=Chicken Dinner
TTITLE6=Ophelia
TTITLE7=Frost On
TTITLE8=Sgt. Revolver
TTITLE9=Ooh Song
TTITLE10=Johnny Cash
TTITLE11=Perfection
EXTD=YEAR: 2000
EXTT0=
EXTT1=
EXTT2=
EXTT3=
EXTT4=
EXTT5=
EXTT6=
EXTT7=
EXTT8=
EXTT9=
EXTT10=
EXTT11=
PLAYORDER=
